<svg preserveAspectRatio="none" width="100%" height="100%" overflow="visible" style="display: block;" viewBox="0 0 150 60" fill="none" xmlns="http://www.w3.org/2000/svg">
<g id="logo">
<path id="Vector" d="M0 2.05636e-06V24.9442H4.99555V20.9813L10.9536 15.7356L18.9846 24.9442H25.5849L14.738 12.4546L23.3029 4.99555H15.7371L4.99555 14.3811V2.05636e-06H0Z" fill="var(--fill-0, #FDFDFD)"/>
<path id="Vector_2" d="M142.165 32.5237L135.992 39.0889L129.819 32.5237H122.932L132.566 42.7299L123.36 52.4708H130.211L135.992 46.3694L141.771 52.4708H148.625L139.453 42.7299L149.015 32.5237H142.165Z" fill="var(--fill-0, #FDFDFD)"/>
<path id="Vector_3" d="M30.585 17.4852V12.453C30.585 11.097 31.6924 9.99111 33.085 9.99111H43.0761C44.4322 9.99111 45.5747 11.097 45.5747 12.453V17.4852C45.5747 18.8397 44.4337 19.9822 43.0761 19.9822H33.085C31.6924 19.9822 30.585 18.8412 30.585 17.4852ZM43.0746 24.9427C47.2144 24.9427 50.5672 21.6235 50.5672 17.4852V12.453C50.5672 8.3483 47.2144 4.99404 43.0746 4.99404H33.0835C28.9437 4.99404 25.5894 8.3483 25.5894 12.453V17.4852C25.5894 21.6235 28.9437 24.9427 33.0835 24.9427H43.0746Z" fill="var(--fill-0, #FDFDFD)"/>
<path id="Vector_4" d="M76.5867 4.99556H54.1411V24.9427H59.1015V9.99111H66.6322V24.9427H71.5912V9.99111H76.5867C77.9779 9.99111 79.0853 11.097 79.0853 12.4515V24.9427H84.0793V12.4515C84.0793 8.3483 80.7616 4.99404 76.5867 4.99404" fill="var(--fill-0, #FDFDFD)"/>
<path id="Vector_5" d="M92.6153 9.99111H105.105C106.498 9.99111 107.603 11.0985 107.603 12.453V17.4852C107.603 18.8397 106.498 19.9837 105.105 19.9837H92.6153V9.99111ZM112.634 17.4852V12.453C112.634 8.34982 109.243 4.99556 105.103 4.99556H87.6533V52.4708H92.6137V24.9427H105.103C109.243 24.9427 112.634 21.625 112.634 17.4852Z" fill="var(--fill-0, #FDFDFD)"/>
<path id="Vector_6" d="M121.204 12.4546C121.204 11.0985 122.309 9.99264 123.701 9.99264H133.692C135.049 9.99264 136.192 11.0985 136.192 12.4546V17.4867C136.192 18.8412 135.051 19.9837 133.692 19.9837H123.701C122.309 19.9837 121.204 18.8428 121.204 17.4867V12.4546ZM123.699 24.9427H133.69C137.831 24.9427 141.184 21.6235 141.184 17.4852V12.453C141.184 8.3483 137.831 4.99404 133.69 4.99404H123.699C119.561 4.99404 116.206 8.3483 116.206 12.453V17.4852C116.206 21.6235 119.561 24.9427 123.699 24.9427Z" fill="var(--fill-0, #FDFDFD)"/>
<path id="Vector_7" d="M50.4772 45.0118C50.4772 46.3679 49.3713 47.5104 47.9786 47.5104H35.489V37.5193H47.9786C49.3713 37.5193 50.4772 38.6251 50.4772 39.9797V45.0118ZM47.9786 32.5237H30.5285V60H35.489V52.4708H47.9786C52.1185 52.4708 55.5093 49.1516 55.5093 45.0118V39.9797C55.5093 35.8764 52.1185 32.5222 47.9786 32.5222" fill="var(--fill-0, #FDFDFD)"/>
<path id="Vector_8" d="M79.0655 45.0118C79.0655 46.3679 77.9245 47.5104 76.5669 47.5104H66.5758C65.1847 47.5104 64.0773 46.3694 64.0773 45.0118V39.9797C64.0773 38.6251 65.1847 37.5193 66.5758 37.5193H76.5669C77.923 37.5193 79.0655 38.6251 79.0655 39.9797V45.0118ZM76.5669 32.5237H66.5758C62.436 32.5237 59.0817 35.878 59.0817 39.9812V45.0134C59.0817 49.1532 62.436 52.4724 66.5758 52.4724H76.5669C80.7067 52.4724 84.061 49.1532 84.061 45.0134V39.9812C84.061 35.878 80.7067 32.5237 76.5669 32.5237Z" fill="var(--fill-0, #FDFDFD)"/>
<path id="Vector_9" d="M96.1647 39.9812V45.0133C96.1647 49.1532 99.5556 52.4708 103.657 52.4708H121.143V47.5104H103.657C102.303 47.5104 101.197 46.3694 101.197 45.0133H121.143V39.9812H101.197C101.197 38.6267 102.303 37.5193 103.657 37.5193H121.143V32.5252H103.657C99.5541 32.5252 96.1647 35.878 96.1647 39.9827" fill="var(--fill-0, #FDFDFD)"/>
</g>
</svg>
