<svg width="58" height="185" viewBox="0 0 58 185" fill="none" xmlns="http://www.w3.org/2000/svg">
<path d="M32.5324 13.1158L26.3603 8.42243L12.8587 8.42243L12.8587 1.37713e-06L57.7354 3.33875e-06L57.7354 8.42243L37.5473 8.42243L37.5473 8.80819L45.0053 14.0159L57.7354 23.4671L57.7354 32.9825L38.8332 18.9022L12.8587 33.6254L12.8587 24.11L32.5324 13.1158ZM12.0871 53.1455C12.0871 50.6166 12.4943 48.3449 13.3087 46.3304C14.1231 44.3587 15.2804 42.6656 16.7806 41.2512C18.2807 39.8796 20.1024 38.808 22.2455 38.0365C24.3886 37.3079 26.7889 36.9435 29.4463 36.9435C32.1038 36.9435 34.5041 37.3079 36.6472 38.0365C38.7903 38.808 40.6119 39.8796 42.1121 41.2512C43.6123 42.6656 44.7696 44.3587 45.584 46.3304C46.3983 48.3449 46.8055 50.6166 46.8055 53.1455C46.8055 55.6315 46.3983 57.8817 45.584 59.8963C44.7696 61.9108 43.6123 63.6038 42.1121 64.9754C40.6119 66.3899 38.7903 67.4614 36.6472 68.1901C34.5041 68.9616 32.1038 69.3474 29.4463 69.3474C26.7889 69.3474 24.3886 68.9616 22.2455 68.1901C20.1024 67.4614 18.2807 66.3899 16.7806 64.9754C15.2804 63.6038 14.1231 61.9108 13.3087 59.8963C12.4943 57.8817 12.0871 55.6315 12.0871 53.1455ZM18.3879 53.1455C18.3879 55.5029 19.0951 57.3674 20.5096 58.739C21.9669 60.1106 24.0886 60.7964 26.8746 60.7964L32.0181 60.7964C34.8041 60.7964 36.9044 60.1106 38.3188 58.739C39.7761 57.3674 40.5048 55.5029 40.5048 53.1455C40.5048 50.788 39.7761 48.9235 38.3188 47.5519C36.9044 46.1804 34.8041 45.4946 32.0181 45.4946L26.8746 45.4946C24.0886 45.4946 21.9669 46.1803 20.5096 47.5519C19.0951 48.9235 18.3879 50.788 18.3879 53.1455ZM12.8587 74.7872L46.034 74.7872L46.034 81.6023L41.4692 81.6023L41.4692 81.988C42.9265 82.5024 44.1695 83.231 45.1982 84.174C46.2698 85.1598 46.8055 86.5314 46.8055 88.2888C46.8055 89.9604 46.3126 91.2891 45.3268 92.275C44.3838 93.2608 43.0337 93.9037 41.2763 94.2038L41.2763 94.5252C42.7765 95.0824 44.0624 95.8968 45.1339 96.9684C46.2483 98.0828 46.8055 99.6473 46.8055 101.662C46.8055 104.105 45.9269 105.862 44.1695 106.934C42.4122 108.005 39.819 108.541 36.39 108.541L12.8587 108.541L12.8587 101.79L35.4256 101.79C37.3544 101.79 38.7046 101.512 39.4761 100.955C40.2476 100.44 40.6334 99.6473 40.6334 98.5757C40.6334 97.5899 40.3119 96.7541 39.669 96.0683C39.026 95.4253 38.0402 95.1039 36.7115 95.1039L12.8587 95.1039L12.8587 88.2888L35.4256 88.2888C37.3544 88.2888 38.7046 88.0316 39.4761 87.5173C40.2476 87.0029 40.6334 86.21 40.6334 85.1384C40.6334 84.1097 40.3119 83.2525 39.669 82.5667C39.026 81.9237 38.0402 81.6023 36.7115 81.6023L12.8587 81.6023L12.8587 74.7872ZM46.034 115.395L46.034 123.625L40.1833 123.625L40.1833 124.075C42.1978 124.975 43.8052 126.197 45.0053 127.74C46.2055 129.326 46.8055 131.404 46.8055 133.976C46.8055 135.862 46.4412 137.577 45.7125 139.12C45.0268 140.706 43.9552 142.056 42.4979 143.17C41.0834 144.285 39.2832 145.142 37.0972 145.742C34.9113 146.342 32.361 146.642 29.4463 146.642C26.5317 146.642 23.9814 146.342 21.7954 145.742C19.6095 145.142 17.7878 144.285 16.3305 143.17C14.916 142.056 13.8445 140.706 13.1158 139.12C12.43 137.577 12.0871 135.862 12.0871 133.976C12.0871 131.404 12.6872 129.326 13.8874 127.74C15.0875 126.197 16.6948 124.975 18.7094 124.075L18.7094 123.625L1.09734e-06 123.625L1.45706e-06 115.395L46.034 115.395ZM18.6451 130.504C18.6451 132.905 19.3737 134.748 20.831 136.034C22.2884 137.362 24.2814 138.027 26.8103 138.027L32.0824 138.027C34.6112 138.027 36.6043 137.362 38.0616 136.034C39.519 134.748 40.2476 132.905 40.2476 130.504C40.2476 128.618 39.7761 126.99 38.8332 125.618C37.9331 124.289 36.54 123.625 34.6541 123.625L24.2386 123.625C22.3526 123.625 20.9382 124.289 19.9952 125.618C19.0951 126.99 18.6451 128.618 18.6451 130.504ZM12.0871 168.798C12.0871 166.269 12.4943 163.998 13.3087 161.983C14.1231 160.011 15.2804 158.318 16.7806 156.904C18.2807 155.532 20.1024 154.461 22.2455 153.689C24.3886 152.96 26.7889 152.596 29.4463 152.596C32.1038 152.596 34.5041 152.96 36.6472 153.689C38.7903 154.461 40.6119 155.532 42.1121 156.904C43.6123 158.318 44.7696 160.011 45.584 161.983C46.3983 163.998 46.8055 166.269 46.8055 168.798C46.8055 171.284 46.3983 173.534 45.584 175.549C44.7696 177.563 43.6123 179.256 42.1121 180.628C40.6119 182.043 38.7903 183.114 36.6472 183.843C34.5041 184.614 32.1038 185 29.4463 185C26.7889 185 24.3886 184.614 22.2455 183.843C20.1024 183.114 18.2807 182.043 16.7806 180.628C15.2804 179.256 14.1231 177.563 13.3087 175.549C12.4943 173.534 12.0871 171.284 12.0871 168.798ZM18.3879 168.798C18.3879 171.156 19.0951 173.02 20.5096 174.392C21.9669 175.763 24.0886 176.449 26.8746 176.449L32.0181 176.449C34.8041 176.449 36.9044 175.763 38.3188 174.392C39.7761 173.02 40.5048 171.156 40.5048 168.798C40.5048 166.441 39.7761 164.576 38.3188 163.205C36.9044 161.833 34.8041 161.147 32.0181 161.147L26.8746 161.147C24.0886 161.147 21.9669 161.833 20.5096 163.205C19.0951 164.576 18.3879 166.441 18.3879 168.798Z" fill="#FDFDFD"/>
</svg>
