<svg width="49" height="299" viewBox="0 0 49 299" fill="none" xmlns="http://www.w3.org/2000/svg">
<path d="M0.770091 -1.34474e-05L45.563 -1.14894e-05L45.563 28.3004L38.6323 28.3004L38.6323 8.40668L26.9528 8.40668L26.9528 27.5945L20.0221 27.5945L20.0221 8.40668L7.7008 8.40668L7.7008 28.3004L0.77009 28.3004L0.770091 -1.34474e-05ZM0.77009 37.9655L33.8835 37.9655L33.8835 46.1796L28.0437 46.1796L28.0437 46.5005C29.8406 47.2278 31.3807 48.3401 32.6642 49.8375C33.9904 51.3777 34.6535 53.4954 34.6535 56.1906C34.6535 59.4421 33.5626 62.0732 31.3807 64.084C29.2416 66.1375 26.1613 67.1643 22.1398 67.1643L0.770088 67.1643L0.770089 58.9501L20.9846 58.9501C25.7762 58.9501 28.172 56.8752 28.172 52.7253C28.172 51.8697 28.0651 51.0568 27.8512 50.2867C27.6373 49.5166 27.295 48.8107 26.8244 48.169C26.3966 47.57 25.8618 47.0781 25.2201 46.693C24.5783 46.3508 23.8083 46.1796 22.9098 46.1796L0.770089 46.1796L0.77009 37.9655ZM8.82913e-06 90.7549C8.98809e-06 87.1185 0.556177 83.974 1.66851 81.3215C2.82363 78.669 4.36379 76.594 6.28898 75.0967L10.6528 79.9097C9.15539 81.2787 8.00027 82.8402 7.18741 84.5943C6.37455 86.3912 5.96812 88.4661 5.96812 90.8191C5.96812 92.8727 6.31037 94.5198 6.99489 95.7604C7.6794 97.0011 8.72756 97.6215 10.1394 97.6215C11.3373 97.6215 12.1501 97.1936 12.578 96.338C13.0058 95.5251 13.3266 94.4342 13.5406 93.0652L14.3748 87.7388C14.5887 86.3698 14.8882 85.0221 15.2732 83.6959C15.7011 82.4124 16.2786 81.2573 17.0059 80.2305C17.7332 79.2465 18.653 78.4551 19.7654 77.8561C20.9205 77.2572 22.3109 76.9577 23.9366 76.9577C27.402 76.9577 30.0545 78.2412 31.8941 80.8081C33.7337 83.4178 34.6535 86.9901 34.6535 91.525C34.6535 94.7337 34.2043 97.4503 33.3059 99.675C32.4075 101.942 31.1454 103.803 29.5197 105.258L24.7709 100.958C25.7976 100.017 26.6961 98.7552 27.4661 97.1723C28.279 95.6321 28.6854 93.6641 28.6854 91.2683C28.6854 87.0757 27.3806 84.9793 24.7709 84.9793C23.573 84.9793 22.7387 85.4072 22.2681 86.2628C21.8403 87.1185 21.5194 88.2308 21.3055 89.5998L20.4713 94.862C20.2574 96.2738 19.9365 97.6215 19.5087 98.9049C19.1236 100.231 18.5675 101.386 17.8402 102.37C17.1129 103.397 16.193 104.21 15.0807 104.809C13.9684 105.408 12.5993 105.707 10.9736 105.707C7.55106 105.707 4.85578 104.381 2.8878 101.729C0.962607 99.1188 8.62342e-06 95.461 8.82913e-06 90.7549ZM7.10789e-06 130.132C7.22384e-06 127.48 0.406438 125.127 1.2193 123.073C2.03216 121.02 3.18728 119.287 4.68465 117.875C6.18203 116.506 7.97888 115.458 10.0752 114.731C12.2143 114.003 14.6101 113.64 17.2626 113.64C19.9579 113.64 22.3751 114.003 24.5142 114.731C26.6533 115.501 28.4715 116.57 29.9689 117.939C31.4663 119.308 32.6214 120.955 33.4342 122.881C34.2471 124.849 34.6535 127.052 34.6535 129.49C34.6535 131.886 34.2471 134.047 33.4342 135.972C32.6642 137.897 31.5518 139.523 30.0972 140.849C28.6426 142.218 26.8886 143.266 24.835 143.994C22.7815 144.721 20.514 145.085 18.0327 145.085L15.3374 145.085L15.3374 121.854L14.5032 121.854C12.1074 121.854 10.1608 122.603 8.66339 124.1C7.2088 125.597 6.4815 127.694 6.4815 130.389C6.4815 132.442 6.88793 134.197 7.70079 135.651C8.55643 137.148 9.66877 138.389 11.0378 139.373L6.35315 144.058C4.59909 142.86 3.10171 141.106 1.86103 138.796C0.620348 136.528 6.95455e-06 133.64 7.10789e-06 130.132ZM28.6213 129.555C28.6213 127.244 27.894 125.383 26.4394 123.972C24.9848 122.56 23.0596 121.854 20.6638 121.854L20.2146 121.854L20.2146 136.87L20.7921 136.87C23.1879 136.87 25.0917 136.207 26.5035 134.881C27.9154 133.598 28.6213 131.822 28.6213 129.555ZM0.770085 150.963L33.8835 150.963L33.8835 157.766L29.3272 157.766L29.3272 158.151C30.7818 158.664 32.0224 159.392 33.0492 160.333C34.1188 161.317 34.6535 162.686 34.6535 164.44C34.6535 166.108 34.1615 167.435 33.1776 168.419C32.2363 169.403 30.8887 170.044 29.1346 170.344L29.1346 170.665C30.632 171.221 31.9155 172.034 32.985 173.103C34.0974 174.216 34.6535 175.777 34.6535 177.788C34.6535 180.226 33.7765 181.98 32.0224 183.05C30.2684 184.12 27.68 184.654 24.2575 184.654L0.770083 184.654L0.770083 177.916L23.2949 177.916C25.2201 177.916 26.5677 177.638 27.3378 177.082C28.1079 176.569 28.4929 175.777 28.4929 174.708C28.4929 173.724 28.172 172.889 27.5303 172.205C26.8886 171.563 25.9046 171.242 24.5783 171.242L0.770084 171.242L0.770084 164.44L23.2949 164.44C25.2201 164.44 26.5677 164.183 27.3378 163.67C28.1079 163.156 28.4929 162.365 28.4929 161.295C28.4929 160.269 28.172 159.413 27.5303 158.728C26.8886 158.087 25.9046 157.766 24.5783 157.766L0.770084 157.766L0.770085 150.963ZM48.2583 191.496L48.2583 199.71L28.0437 199.71L28.0437 200.159C30.0545 201.058 31.6588 202.277 32.8567 203.817C34.0546 205.4 34.6535 207.475 34.6535 210.042C34.6535 211.924 34.2899 213.636 33.5626 215.176C32.8781 216.759 31.8085 218.106 30.3539 219.219C28.9421 220.331 27.1453 221.187 24.9634 221.786C22.7815 222.385 20.236 222.684 17.3268 222.684C14.4176 222.684 11.872 222.385 9.69016 221.786C7.50827 221.187 5.69003 220.331 4.23543 219.219C2.82362 218.106 1.75407 216.759 1.02677 215.176C0.342261 213.636 3.53265e-06 211.924 3.61493e-06 210.042C3.72714e-06 207.475 0.598954 205.4 1.79685 203.817C2.99475 202.277 4.59908 201.058 6.60984 200.159L6.60984 199.71L0.770083 199.71L0.770083 191.496L48.2583 191.496ZM6.54567 206.577C6.54567 208.972 7.27297 210.812 8.72756 212.095C10.1822 213.422 12.1715 214.085 14.6957 214.085L19.9579 214.085C22.482 214.085 24.4714 213.422 25.926 212.095C27.3806 210.812 28.1079 208.972 28.1079 206.577C28.1079 204.694 27.6373 203.068 26.6961 201.699C25.7976 200.373 24.4072 199.71 22.5248 199.71L12.1287 199.71C10.2463 199.71 8.83452 200.373 7.89331 201.699C6.99488 203.068 6.54567 204.694 6.54567 206.577ZM7.25158 230.167L7.25157 240.692L41.7768 240.692L41.7768 230.167L48.2583 230.167L48.2583 248.906L7.25157 248.906L7.25157 259.494L0.77008 259.494L0.770081 230.167L7.25158 230.167ZM3.80038e-07 284.048C4.95982e-07 281.395 0.406431 279.042 1.21929 276.989C2.03215 274.935 3.18727 273.202 4.68465 271.791C6.18202 270.422 7.97887 269.373 10.0752 268.646C12.2143 267.919 14.6101 267.555 17.2626 267.555C19.9579 267.555 22.3751 267.919 24.5142 268.646C26.6533 269.416 28.4715 270.486 29.9689 271.855C31.4663 273.224 32.6214 274.871 33.4342 276.796C34.2471 278.764 34.6535 280.967 34.6535 283.406C34.6535 285.802 34.2471 287.962 33.4342 289.887C32.6642 291.813 31.5518 293.438 30.0972 294.765C28.6426 296.134 26.8886 297.182 24.835 297.909C22.7815 298.636 20.514 299 18.0327 299L15.3374 299L15.3374 275.769L14.5031 275.769C12.1073 275.769 10.1608 276.518 8.66338 278.015C7.20879 279.513 6.48149 281.609 6.48149 284.304C6.48149 286.358 6.88792 288.112 7.70078 289.567C8.55643 291.064 9.66876 292.305 11.0378 293.289L6.35315 297.973C4.59908 296.775 3.1017 295.021 1.86102 292.711C0.620341 290.444 2.26692e-07 287.556 3.80038e-07 284.048ZM28.6213 283.47C28.6213 281.16 27.894 279.299 26.4394 277.887C24.9848 276.475 23.0596 275.769 20.6638 275.769L20.2146 275.769L20.2146 290.786L20.7921 290.786C23.1879 290.786 25.0917 290.123 26.5035 288.796C27.9153 287.513 28.6213 285.738 28.6213 283.47Z" fill="#131313"/>
</svg>
