<svg width="49" height="149" viewBox="0 0 49 149" fill="none" xmlns="http://www.w3.org/2000/svg">
<path d="M38.5661 21.7815L0.768767 21.7815L0.768767 13.4533L38.5661 13.4533L38.5661 -6.40246e-06L45.4849 -6.10003e-06L45.4849 35.2348L38.5661 35.2348L38.5661 21.7815ZM7.23915 41.6161L7.23915 49.8161L27.355 49.8161L27.355 41.6161L33.8254 41.6161L33.8254 58.0162L24.7925 58.0162L24.7925 58.5287C25.9456 58.8277 27.056 59.2334 28.1238 59.7459C29.2342 60.3012 30.1951 60.9845 31.0066 61.796C31.8608 62.6501 32.5441 63.6752 33.0566 64.871C33.5691 66.0668 33.8254 67.4976 33.8254 69.1632L33.8254 72.7508L26.1378 72.7508L26.1378 65.9601C26.1378 63.483 25.4117 61.5397 23.9596 60.1303C22.5075 58.7209 20.6497 58.0162 18.3861 58.0162L7.23915 58.0162L7.23915 69.4835L0.768765 69.4835L0.768766 41.6161L7.23915 41.6161ZM38.9504 96.4932C38.9504 94.5713 39.3562 93.2046 40.1676 92.3931C40.9791 91.6244 41.9614 91.24 43.1145 91.24L44.6521 91.24C45.8052 91.24 46.7875 91.6244 47.599 92.3931C48.4104 93.2046 48.8162 94.5713 48.8162 96.4932C48.8162 98.4151 48.4104 99.7604 47.599 100.529C46.7875 101.341 45.8052 101.746 44.6521 101.746L43.1145 101.746C41.9614 101.746 40.9791 101.341 40.1676 100.529C39.3562 99.7604 38.9504 98.4151 38.9504 96.4932ZM7.23915 81.5024L7.23915 92.3931L27.355 92.3931L27.355 81.5024L33.8254 81.5024L33.8254 100.593L7.23915 100.593L7.23915 110.715L0.768763 110.715L0.768764 81.5024L7.23915 81.5024ZM3.31085e-06 132.856C3.42099e-06 130.336 0.405737 128.073 1.2172 126.065C2.02867 124.101 3.18181 122.414 4.67662 121.004C6.17143 119.638 7.98655 118.57 10.122 117.801C12.2574 117.075 14.6491 116.712 17.2971 116.712C19.945 116.712 22.3367 117.075 24.4721 117.801C26.6076 118.57 28.4227 119.638 29.9175 121.004C31.4123 122.414 32.5655 124.101 33.3769 126.065C34.1884 128.073 34.5941 130.336 34.5941 132.856C34.5941 135.333 34.1884 137.575 33.3769 139.583C32.5655 141.59 31.4123 143.277 29.9175 144.644C28.4227 146.053 26.6076 147.121 24.4721 147.847C22.3367 148.616 19.945 149 17.2971 149C14.6491 149 12.2574 148.616 10.122 147.847C7.98655 147.121 6.17142 146.053 4.67662 144.644C3.18181 143.277 2.02867 141.59 1.2172 139.583C0.405737 137.575 3.20257e-06 135.333 3.31085e-06 132.856ZM6.2782 132.856C6.2782 135.205 6.98289 137.063 8.39228 138.43C9.84438 139.796 11.9585 140.48 14.7345 140.48L19.8596 140.48C22.6357 140.48 24.7284 139.796 26.1378 138.43C27.5899 137.063 28.3159 135.205 28.3159 132.856C28.3159 130.507 27.5899 128.649 26.1378 127.283C24.7284 125.916 22.6357 125.233 19.8596 125.233L14.7345 125.233C11.9585 125.233 9.84438 125.916 8.39228 127.283C6.98289 128.649 6.2782 130.507 6.2782 132.856Z" fill="#131313"/>
</svg>
