<svg width="49" height="185" viewBox="0 0 49 185" fill="none" xmlns="http://www.w3.org/2000/svg">
<path d="M0.769656 3.28523e-06L45.5375 5.24209e-06L45.5375 16.9964C45.5375 21.3577 44.2975 24.6929 41.8175 27.0018C39.3375 29.3107 35.9596 30.4652 31.6838 30.4652C27.408 30.4652 24.0301 29.3107 21.5501 27.0018C19.0702 24.6929 17.8302 21.3577 17.8302 16.9964L17.8302 8.40199L0.769656 8.40199L0.769656 3.28523e-06ZM24.6929 8.40199L24.6929 15.2647C24.6929 17.5309 25.1418 19.1557 26.0397 20.1391C26.9804 21.1226 28.4556 21.6143 30.4652 21.6143L32.9024 21.6143C34.9121 21.6143 36.3659 21.1226 37.2638 20.1391C38.2045 19.1557 38.6748 17.5309 38.6748 15.2647L38.6748 8.40199L24.6929 8.40199ZM6.67672e-06 52.5675C6.787e-06 50.0448 0.40621 47.7786 1.21862 45.769C2.03102 43.8021 3.18549 42.1131 4.68203 40.7021C6.17857 39.3339 7.99579 38.2649 10.1337 37.4953C12.2716 36.7684 14.6661 36.4049 17.3171 36.4049C19.9681 36.4049 22.3625 36.7684 24.5005 37.4953C26.6384 38.2649 28.4556 39.3339 29.9521 40.7021C31.4487 42.1131 32.6031 43.8021 33.4155 45.769C34.2279 47.7786 34.6341 50.0448 34.6341 52.5675C34.6341 55.0475 34.2279 57.2923 33.4155 59.3019C32.6031 61.3116 31.4487 63.0005 29.9521 64.3688C28.4556 65.7798 26.6384 66.8488 24.5005 67.5757C22.3625 68.3453 19.9681 68.7301 17.3171 68.7301C14.6661 68.7301 12.2716 68.3453 10.1337 67.5757C7.99579 66.8488 6.17856 65.7798 4.68203 64.3688C3.18549 63.0005 2.03102 61.3116 1.21861 59.3019C0.406209 57.2923 6.56832e-06 55.0475 6.67672e-06 52.5675ZM6.28546 52.5675C6.28546 54.9192 6.99097 56.7792 8.40199 58.1475C9.85577 59.5157 11.9723 60.1999 14.7516 60.1999L19.8826 60.1999C22.6618 60.1999 24.757 59.5157 26.168 58.1475C27.6218 56.7792 28.3487 54.9192 28.3487 52.5675C28.3487 50.2158 27.6218 48.3558 26.168 46.9876C24.757 45.6193 22.6618 44.9352 19.8826 44.9352L14.7516 44.9352C11.9723 44.9352 9.85577 45.6193 8.40199 46.9876C6.99097 48.3558 6.28546 50.2158 6.28546 52.5675ZM7.24752 76.4015L7.24752 86.9201L41.7534 86.9201L41.7534 76.4015L48.2312 76.4015L48.2312 95.1296L7.24752 95.1296L7.24752 105.712L0.769652 105.712L0.769653 76.4015L7.24752 76.4015ZM3.28104e-06 130.252C3.39692e-06 127.601 0.406206 125.249 1.21861 123.197C2.03102 121.144 3.18549 119.413 4.68203 118.002C6.17856 116.633 7.97441 115.586 10.0696 114.859C12.2075 114.132 14.6019 113.769 17.2529 113.769C19.9467 113.769 22.3625 114.132 24.5004 114.859C26.6384 115.629 28.4556 116.697 29.9521 118.066C31.4487 119.434 32.6031 121.08 33.4155 123.004C34.2279 124.971 34.6341 127.173 34.6341 129.61C34.6341 132.005 34.2279 134.164 33.4155 136.088C32.6459 138.012 31.5342 139.637 30.0804 140.963C28.6266 142.331 26.8735 143.379 24.8211 144.105C22.7687 144.832 20.5026 145.196 18.0226 145.196L15.3288 145.196L15.3288 121.978L14.495 121.978C12.1006 121.978 10.1551 122.726 8.65854 124.223C7.20476 125.719 6.47787 127.815 6.47787 130.508C6.47787 132.561 6.88407 134.314 7.69648 135.768C8.55164 137.264 9.66335 138.504 11.0316 139.488L6.34959 144.17C4.59651 142.972 3.09997 141.219 1.85998 138.91C0.619997 136.644 3.12778e-06 133.758 3.28104e-06 130.252ZM28.6052 129.675C28.6052 127.366 27.8783 125.506 26.4246 124.095C24.9708 122.684 23.0467 121.978 20.6522 121.978L20.2032 121.978L20.2032 136.986L20.7805 136.986C23.1749 136.986 25.0777 136.323 26.4887 134.998C27.8997 133.715 28.6052 131.941 28.6052 129.675ZM0.76965 150.879L17.5736 163.257L33.8645 151.584L33.8645 161.013L28.028 164.989L23.4101 168.068L23.4101 168.517L28.028 171.595L33.8645 175.572L33.8645 184.294L17.9584 172.622L0.769648 185L0.769649 175.508L7.43993 170.954L12.1219 167.811L12.1219 167.362L7.43993 164.22L0.769649 159.666L0.76965 150.879Z" fill="#131313"/>
</svg>
