<svg preserveAspectRatio="none" width="100%" height="100%" overflow="visible" style="display: block;" viewBox="0 0 60 60" fill="none" xmlns="http://www.w3.org/2000/svg">
<g id="octicon:play-24">
<path id="Vector" d="M23.75 38.96V21.04C23.7504 20.8158 23.811 20.5958 23.9257 20.4031C24.0403 20.2104 24.2046 20.0521 24.4014 19.9447C24.5983 19.8373 24.8204 19.7849 25.0444 19.7929C25.2685 19.8008 25.4863 19.8689 25.675 19.99L39.615 28.9475C39.7915 29.0606 39.9367 29.2163 40.0373 29.4002C40.1379 29.5841 40.1907 29.7904 40.1907 30C40.1907 30.2096 40.1379 30.4159 40.0373 30.5998C39.9367 30.7837 39.7915 30.9394 39.615 31.0525L25.675 40.0125C25.4863 40.1336 25.2685 40.2017 25.0444 40.2096C24.8204 40.2176 24.5983 40.1652 24.4014 40.0578C24.2046 39.9504 24.0403 39.7921 23.9257 39.5994C23.811 39.4067 23.7504 39.1867 23.75 38.9625V38.96Z" fill="var(--fill-0, #FDFDFD)"/>
<path id="Vector_2" d="M2.5 30C2.5 14.8125 14.8125 2.5 30 2.5C45.1875 2.5 57.5 14.8125 57.5 30C57.5 45.1875 45.1875 57.5 30 57.5C14.8125 57.5 2.5 45.1875 2.5 30ZM30 6.25C23.7011 6.25 17.6602 8.75222 13.2062 13.2062C8.75222 17.6602 6.25 23.7011 6.25 30C6.25 36.2989 8.75222 42.3398 13.2062 46.7938C17.6602 51.2478 23.7011 53.75 30 53.75C36.2989 53.75 42.3398 51.2478 46.7938 46.7938C51.2478 42.3398 53.75 36.2989 53.75 30C53.75 23.7011 51.2478 17.6602 46.7938 13.2062C42.3398 8.75222 36.2989 6.25 30 6.25Z" fill="var(--fill-0, #FDFDFD)"/>
</g>
</svg>
