<svg preserveAspectRatio="none" width="100%" height="100%" overflow="visible" style="display: block;" viewBox="0 0 105 42" fill="none" xmlns="http://www.w3.org/2000/svg">
<g id="logo">
<path id="Vector" d="M0 2.05636e-06V17.461H3.49689V14.6869L7.66753 11.0149L13.2893 17.461H17.9094L10.3166 8.7182L16.3121 3.49689H11.016L3.49689 10.0668V2.05636e-06H0Z" fill="var(--fill-0, #131313)"/>
<path id="Vector_2" d="M99.5156 22.7666L95.1944 27.3623L90.8732 22.7666H86.0523L92.7963 29.911L86.3524 36.7296H91.1477L95.1944 32.4586L99.2401 36.7296H104.038L97.6172 29.911L104.311 22.7666H99.5156Z" fill="var(--fill-0, #131313)"/>
<path id="Vector_3" d="M21.4095 12.2396V8.71713C21.4095 7.7679 22.1847 6.99378 23.1595 6.99378H30.1533C31.1025 6.99378 31.9023 7.7679 31.9023 8.71713V12.2396C31.9023 13.1878 31.1036 13.9876 30.1533 13.9876H23.1595C22.1847 13.9876 21.4095 13.1889 21.4095 12.2396ZM30.1522 17.4599C33.0501 17.4599 35.397 15.1365 35.397 12.2396V8.71713C35.397 5.84381 33.0501 3.49582 30.1522 3.49582H23.1584C20.2606 3.49582 17.9126 5.84381 17.9126 8.71713V12.2396C17.9126 15.1365 20.2606 17.4599 23.1584 17.4599H30.1522Z" fill="var(--fill-0, #131313)"/>
<path id="Vector_4" d="M53.611 3.49689H37.899V17.4599H41.3713V6.99378H46.6428V17.4599H50.1141V6.99378H53.611C54.5848 6.99378 55.36 7.7679 55.36 8.71606V17.4599H58.8558V8.71606C58.8558 5.84381 56.5334 3.49582 53.611 3.49582" fill="var(--fill-0, #131313)"/>
<path id="Vector_5" d="M64.8309 6.99379H73.5737C74.5485 6.99379 75.3226 7.76898 75.3226 8.71714V12.2397C75.3226 13.1878 74.5485 13.9886 73.5737 13.9886H64.8309V6.99379ZM78.8441 12.2397V8.71714C78.8441 5.84489 76.4705 3.4969 73.5726 3.4969H61.3575V36.7296H64.8298V17.4599H73.5726C76.4705 17.4599 78.8441 15.1375 78.8441 12.2397Z" fill="var(--fill-0, #131313)"/>
<path id="Vector_6" d="M84.8428 8.7182C84.8428 7.76897 85.617 6.99485 86.5907 6.99485H93.5845C94.5348 6.99485 95.3346 7.76897 95.3346 8.7182V12.2407C95.3346 13.1889 94.5359 13.9886 93.5845 13.9886H86.5907C85.617 13.9886 84.8428 13.1899 84.8428 12.2407V8.7182ZM86.5897 17.4599H93.5835C96.4824 17.4599 98.8293 15.1365 98.8293 12.2396V8.71713C98.8293 5.84381 96.4824 3.49582 93.5835 3.49582H86.5897C83.6929 3.49582 81.3449 5.84381 81.3449 8.71713V12.2396C81.3449 15.1365 83.6929 17.4599 86.5897 17.4599Z" fill="var(--fill-0, #131313)"/>
<path id="Vector_7" d="M35.3338 31.5083C35.3338 32.4575 34.5597 33.2572 33.5849 33.2572H24.8421V26.2635H33.5849C34.5597 26.2635 35.3338 27.0376 35.3338 27.9857V31.5083ZM33.5849 22.7666H21.3698V42H24.8421V36.7296H33.5849C36.4827 36.7296 38.8564 34.4061 38.8564 31.5083V27.9857C38.8564 25.1135 36.4827 22.7655 33.5849 22.7655" fill="var(--fill-0, #131313)"/>
<path id="Vector_8" d="M55.3458 31.5083C55.3458 32.4576 54.5471 33.2573 53.5968 33.2573H46.603C45.6292 33.2573 44.854 32.4586 44.854 31.5083V27.9858C44.854 27.0377 45.6292 26.2635 46.603 26.2635H53.5968C54.546 26.2635 55.3458 27.0377 55.3458 27.9858V31.5083ZM53.5968 22.7666H46.603C43.7051 22.7666 41.3572 25.1146 41.3572 27.9869V31.5094C41.3572 34.4073 43.7051 36.7307 46.603 36.7307H53.5968C56.4947 36.7307 58.8427 34.4073 58.8427 31.5094V27.9869C58.8427 25.1146 56.4947 22.7666 53.5968 22.7666Z" fill="var(--fill-0, #131313)"/>
<path id="Vector_9" d="M67.3152 27.9868V31.5094C67.3152 34.4072 69.6888 36.7296 72.56 36.7296H84.7997V33.2573H72.56C71.6119 33.2573 70.8377 32.4586 70.8377 31.5094H84.7997V27.9868H70.8377C70.8377 27.0387 71.6119 26.2635 72.56 26.2635H84.7997V22.7677H72.56C69.6878 22.7677 67.3152 25.1146 67.3152 27.9879" fill="var(--fill-0, #131313)"/>
</g>
</svg>
