<svg preserveAspectRatio="none" width="100%" height="100%" overflow="visible" style="display: block;" viewBox="0 0 49 149" fill="none" xmlns="http://www.w3.org/2000/svg">
<g id="Trio">
<path d="M38.528 21.76L0.768005 21.76L0.768005 13.44L38.528 13.44V0L45.44 3.02133e-07V35.2H38.528V21.76Z" fill="var(--fill-0, #131313)"/>
<path d="M7.232 41.575L7.232 49.767H27.328V41.575H33.792L33.792 57.959L24.768 57.959V58.471C25.92 58.7697 27.0293 59.175 28.096 59.687C29.2053 60.2417 30.1653 60.9243 30.976 61.735C31.8293 62.5883 32.512 63.6123 33.024 64.807C33.536 66.0017 33.792 67.431 33.792 69.095V72.679H26.112V65.895C26.112 63.4203 25.3867 61.479 23.936 60.071C22.4853 58.663 20.6293 57.959 18.368 57.959H7.232L7.232 69.415H0.768003L0.768004 41.575H7.232Z" fill="var(--fill-0, #131313)"/>
<path d="M38.912 96.398C38.912 94.478 39.3173 93.1127 40.128 92.302C40.9387 91.534 41.92 91.15 43.072 91.15H44.608C45.76 91.15 46.7413 91.534 47.552 92.302C48.3627 93.1127 48.768 94.478 48.768 96.398C48.768 98.318 48.3627 99.662 47.552 100.43C46.7413 101.241 45.76 101.646 44.608 101.646H43.072C41.92 101.646 40.9387 101.241 40.128 100.43C39.3173 99.662 38.912 98.318 38.912 96.398ZM7.232 81.422L7.232 92.302H27.328V81.422H33.792V100.494H7.232L7.232 110.606H0.768001L0.768002 81.422H7.232Z" fill="var(--fill-0, #131313)"/>
<path d="M0 132.725C1.10036e-07 130.208 0.405334 127.946 1.216 125.941C2.02667 123.978 3.17867 122.293 4.672 120.885C6.16533 119.52 7.97867 118.453 10.112 117.685C12.2453 116.96 14.6347 116.597 17.28 116.597C19.9253 116.597 22.3147 116.96 24.448 117.685C26.5813 118.453 28.3947 119.52 29.888 120.885C31.3813 122.293 32.5333 123.978 33.344 125.941C34.1547 127.946 34.56 130.208 34.56 132.725C34.56 135.2 34.1547 137.44 33.344 139.445C32.5333 141.45 31.3813 143.136 29.888 144.501C28.3947 145.909 26.5813 146.976 24.448 147.701C22.3147 148.469 19.9253 148.853 17.28 148.853C14.6347 148.853 12.2453 148.469 10.112 147.701C7.97867 146.976 6.16533 145.909 4.672 144.501C3.17867 143.136 2.02667 141.45 1.216 139.445C0.405333 137.44 -1.08171e-07 135.2 0 132.725ZM6.272 132.725C6.272 135.072 6.976 136.928 8.384 138.293C9.83467 139.658 11.9467 140.341 14.72 140.341H19.84C22.6133 140.341 24.704 139.658 26.112 138.293C27.5627 136.928 28.288 135.072 28.288 132.725C28.288 130.378 27.5627 128.522 26.112 127.157C24.704 125.792 22.6133 125.109 19.84 125.109H14.72C11.9467 125.109 9.83467 125.792 8.384 127.157C6.976 128.522 6.272 130.378 6.272 132.725Z" fill="var(--fill-0, #131313)"/>
</g>
</svg>
