<svg width="49" height="260" viewBox="0 0 49 260" fill="none" xmlns="http://www.w3.org/2000/svg">
<path d="M20.3516 13.056L14.2076 8.384L0.767578 8.384L0.767578 1.37085e-06L45.4396 3.32352e-06L45.4396 8.384L25.3436 8.384L25.3436 8.768L32.7676 13.952L45.4396 23.36L45.4396 32.832L26.6236 18.816L0.767576 33.472L0.767577 24L20.3516 13.056ZM-0.000424398 52.903C-0.000424288 50.3857 0.404909 48.1243 1.21558 46.119C2.02624 44.1563 3.17824 42.471 4.67158 41.063C6.16491 39.6977 7.97824 38.631 10.1116 37.863C12.2449 37.1377 14.6342 36.775 17.2796 36.775C19.9249 36.775 22.3142 37.1377 24.4476 37.863C26.5809 38.631 28.3942 39.6977 29.8876 41.063C31.3809 42.471 32.5329 44.1563 33.3436 46.119C34.1542 48.1243 34.5596 50.3857 34.5596 52.903C34.5596 55.3777 34.1542 57.6177 33.3436 59.623C32.5329 61.6283 31.3809 63.3137 29.8876 64.679C28.3942 66.087 26.5809 67.1537 24.4476 67.879C22.3142 68.647 19.9249 69.031 17.2796 69.031C14.6342 69.031 12.2449 68.647 10.1116 67.879C7.97824 67.1537 6.16491 66.087 4.67158 64.679C3.17824 63.3137 2.02624 61.6283 1.21558 59.623C0.404909 57.6177 -0.000424507 55.3777 -0.000424398 52.903ZM6.27158 52.903C6.27158 55.2497 6.97558 57.1057 8.38358 58.471C9.83424 59.8363 11.9462 60.519 14.7196 60.519L19.8396 60.519C22.6129 60.519 24.7036 59.8363 26.1116 58.471C27.5622 57.1057 28.2876 55.2497 28.2876 52.903C28.2876 50.5563 27.5622 48.7003 26.1116 47.335C24.7036 45.9697 22.6129 45.287 19.8396 45.287L14.7196 45.287C11.9462 45.287 9.83424 45.9697 8.38358 47.335C6.97558 48.7003 6.27158 50.5563 6.27158 52.903ZM0.767575 76.878L33.7916 76.878L33.7916 85.07L27.9676 85.07L27.9676 85.39C29.7596 86.1153 31.2956 87.2247 32.5756 88.718C33.8982 90.254 34.5596 92.366 34.5596 95.054C34.5596 98.2967 33.4716 100.921 31.2956 102.926C29.1622 104.974 26.0902 105.998 22.0796 105.998L0.767573 105.998L0.767574 97.806L20.9276 97.806C25.7062 97.806 28.0956 95.7367 28.0956 91.598C28.0956 90.7447 27.9889 89.934 27.7756 89.166C27.5622 88.398 27.2209 87.694 26.7516 87.054C26.3249 86.4567 25.7916 85.966 25.1516 85.582C24.5116 85.2407 23.7436 85.07 22.8476 85.07L0.767574 85.07L0.767575 76.878ZM0.767572 131.893C0.767572 128.736 1.59957 126.41 3.26357 124.917C4.92757 123.424 7.08224 122.677 9.72757 122.677L27.3276 122.677L27.3276 113.077L33.7916 113.077L33.7916 119.605C33.7916 120.928 34.0476 121.866 34.5596 122.421C35.1142 122.976 36.0742 123.253 37.4396 123.253L45.4396 123.253L45.4396 130.869L33.7916 130.869L33.7916 144.309L27.3276 144.309L27.3276 130.869L7.23157 130.869L7.23157 144.309L0.767572 144.309L0.767572 131.893ZM0.76757 180.188C0.76757 178.183 1.25824 176.625 2.23957 175.516C3.26357 174.449 4.67157 173.809 6.46357 173.596L6.46357 173.276C4.41557 172.679 2.81557 171.505 1.66357 169.756C0.554237 168.007 -0.000429336 165.852 -0.000429224 163.292C-0.000429078 159.964 0.874238 157.319 2.62357 155.356C4.3729 153.393 6.8049 152.412 9.91957 152.412C16.5756 152.412 19.9036 157.297 19.9036 167.068L19.9036 172.892L22.0796 172.892C24.1702 172.892 25.7489 172.38 26.8156 171.356C27.8822 170.332 28.4156 168.668 28.4156 166.364C28.4156 164.273 28.0102 162.588 27.1996 161.308C26.3889 160.028 25.3436 158.94 24.0636 158.044L28.0316 153.372C29.8662 154.396 31.4022 156.039 32.6396 158.3C33.9196 160.604 34.5596 163.569 34.5596 167.196C34.5596 171.548 33.5356 174.94 31.4876 177.372C29.4822 179.847 26.4742 181.084 22.4636 181.084L6.91157 181.084L6.91157 184.988L0.76757 184.988L0.76757 180.188ZM5.63157 166.044C5.63157 168.007 6.07957 169.628 6.97557 170.908C7.91424 172.231 9.1729 172.892 10.7516 172.892L15.1676 172.892L15.1676 167.26C15.1676 162.78 13.7596 160.54 10.9436 160.54L9.66357 160.54C8.3409 160.54 7.33824 161.031 6.65557 162.012C5.9729 162.993 5.63157 164.337 5.63157 166.044ZM48.1276 192.131L48.1276 200.323L20.3516 200.323L20.3516 200.707L25.5996 205.507L33.7916 213.635L33.7916 223.171L20.7996 210.051L0.767568 224.579L0.767569 214.787L16.1276 204.227L12.4156 200.323L0.767569 200.323L0.76757 192.131L48.1276 192.131ZM0.767567 247.018C0.767567 243.861 1.59957 241.535 3.26357 240.042C4.92757 238.549 7.08223 237.802 9.72757 237.802L27.3276 237.802L27.3276 228.202L33.7916 228.202L33.7916 234.73C33.7916 236.053 34.0476 236.991 34.5596 237.546C35.1142 238.101 36.0742 238.378 37.4396 238.378L45.4396 238.378L45.4396 245.994L33.7916 245.994L33.7916 259.434L27.3276 259.434L27.3276 245.994L7.23157 245.994L7.23157 259.434L0.767567 259.434L0.767567 247.018Z" fill="#131313"/>
</svg>
