<svg width="49" height="337" viewBox="0 0 49 337" fill="none" xmlns="http://www.w3.org/2000/svg">
<path d="M20.3521 13.056L14.2081 8.384L0.768066 8.384L0.768066 1.37085e-06L45.4401 3.32352e-06L45.4401 8.384L25.3441 8.384L25.3441 8.768L32.7681 13.952L45.4401 23.36L45.4401 32.832L26.6241 18.816L0.768065 33.472L0.768065 24L20.3521 13.056ZM0.768063 65.063C0.768063 63.0577 1.25873 61.5003 2.24006 60.391C3.26406 59.3243 4.67206 58.6843 6.46406 58.471L6.46406 58.151C4.41606 57.5537 2.81606 56.3803 1.66406 54.631C0.554731 52.8817 6.3978e-05 50.727 6.40899e-05 48.167C6.42354e-05 44.839 0.874731 42.1937 2.62406 40.231C4.3734 38.2683 6.8054 37.287 9.92006 37.287C16.5761 37.287 19.9041 42.1723 19.9041 51.943L19.9041 57.767L22.0801 57.767C24.1707 57.767 25.7494 57.255 26.8161 56.231C27.8827 55.207 28.4161 53.543 28.4161 51.239C28.4161 49.1483 28.0107 47.463 27.2001 46.183C26.3894 44.903 25.3441 43.815 24.0641 42.919L28.0321 38.247C29.8667 39.271 31.4027 40.9137 32.6401 43.175C33.9201 45.479 34.5601 48.4443 34.5601 52.071C34.5601 56.423 33.5361 59.815 31.4881 62.247C29.4827 64.7217 26.4747 65.959 22.4641 65.959L6.91206 65.959L6.91206 69.863L0.768063 69.863L0.768063 65.063ZM5.63206 50.919C5.63206 52.8817 6.08006 54.503 6.97606 55.783C7.91473 57.1057 9.1734 57.767 10.7521 57.767L15.1681 57.767L15.1681 52.135C15.1681 47.655 13.7601 45.415 10.9441 45.415L9.66407 45.415C8.3414 45.415 7.33873 45.9057 6.65606 46.887C5.9734 47.8683 5.63206 49.2123 5.63206 50.919ZM7.23206 76.686L7.23206 87.182L41.6641 87.182L41.6641 76.686L48.1281 76.686L48.1281 95.374L7.23206 95.374L7.23206 105.934L0.768062 105.934L0.768063 76.686L7.23206 76.686ZM6.04945e-05 130.421C6.06101e-05 127.776 0.405394 125.429 1.21606 123.381C2.02673 121.333 3.17873 119.605 4.67206 118.197C6.16539 116.832 7.95739 115.786 10.0481 115.061C12.1814 114.336 14.5707 113.973 17.2161 113.973C19.9041 113.973 22.3147 114.336 24.4481 115.061C26.5814 115.829 28.3947 116.896 29.8881 118.261C31.3814 119.626 32.5334 121.269 33.3441 123.189C34.1547 125.152 34.5601 127.349 34.5601 129.781C34.5601 132.17 34.1547 134.325 33.3441 136.245C32.5761 138.165 31.4667 139.786 30.0161 141.109C28.5654 142.474 26.8161 143.52 24.7681 144.245C22.7201 144.97 20.4587 145.333 17.9841 145.333L15.2961 145.333L15.2961 122.165L14.4641 122.165C12.0747 122.165 10.1334 122.912 8.64006 124.405C7.18939 125.898 6.46406 127.989 6.46406 130.677C6.46406 132.725 6.86939 134.474 7.68006 135.925C8.53339 137.418 9.64273 138.656 11.0081 139.637L6.33606 144.309C4.58673 143.114 3.09339 141.365 1.85606 139.061C0.618727 136.8 6.03415e-05 133.92 6.04945e-05 130.421ZM28.5441 129.845C28.5441 127.541 27.8187 125.685 26.3681 124.277C24.9174 122.869 22.9974 122.165 20.6081 122.165L20.1601 122.165L20.1601 137.141L20.7361 137.141C23.1254 137.141 25.0241 136.48 26.4321 135.157C27.8401 133.877 28.5441 132.106 28.5441 129.845ZM0.768059 153.628L33.7921 153.628L33.7921 161.82L27.9681 161.82L27.9681 162.14C29.7601 162.865 31.2961 163.975 32.5761 165.468C33.8987 167.004 34.5601 169.116 34.5601 171.804C34.5601 175.047 33.4721 177.671 31.2961 179.676C29.1627 181.724 26.0907 182.748 22.0801 182.748L0.768058 182.748L0.768059 174.556L20.9281 174.556C25.7067 174.556 28.0961 172.487 28.0961 168.348C28.0961 167.495 27.9894 166.684 27.7761 165.916C27.5627 165.148 27.2214 164.444 26.7521 163.804C26.3254 163.207 25.7921 162.716 25.1521 162.332C24.5121 161.991 23.7441 161.82 22.8481 161.82L0.768059 161.82L0.768059 153.628ZM6.59206 212.995L6.59206 212.547C4.58672 211.651 2.98672 210.414 1.79206 208.835C0.59739 207.299 5.72235e-05 205.251 5.73354e-05 202.691C5.74175e-05 200.814 0.341391 199.086 1.02406 197.507C1.74939 195.971 2.81606 194.648 4.22406 193.539C5.67472 192.43 7.48806 191.576 9.66406 190.979C11.8401 190.382 14.3787 190.083 17.2801 190.083C23.0827 190.083 27.4134 191.235 30.2721 193.539C33.1307 195.843 34.5601 198.894 34.5601 202.691C34.5601 205.251 33.9627 207.299 32.7681 208.835C31.5734 210.414 29.9734 211.651 27.9681 212.547L27.9681 212.995L48.1281 212.995L48.1281 221.187L0.768057 221.187L0.768057 212.995L6.59206 212.995ZM6.52806 206.147C6.52806 207.086 6.63472 207.96 6.84806 208.771C7.10406 209.624 7.44539 210.35 7.87206 210.947C8.34139 211.587 8.91739 212.078 9.60006 212.419C10.3254 212.803 11.1574 212.995 12.0961 212.995L22.4641 212.995C23.4027 212.995 24.2134 212.803 24.8961 212.419C25.6214 212.078 26.1974 211.587 26.6241 210.947C27.0934 210.35 27.4347 209.624 27.6481 208.771C27.9041 207.96 28.0321 207.086 28.0321 206.147C28.0321 203.758 27.3067 201.902 25.8561 200.579C24.4054 199.299 22.4214 198.659 19.9041 198.659L14.6561 198.659C12.1387 198.659 10.1547 199.299 8.70406 200.579C7.25339 201.902 6.52806 203.758 6.52806 206.147ZM0.768055 256.938C0.768055 254.933 1.25872 253.375 2.24006 252.266C3.26406 251.199 4.67206 250.559 6.46406 250.346L6.46406 250.026C4.41606 249.429 2.81606 248.255 1.66406 246.506C0.554722 244.757 5.55909e-05 242.602 5.57028e-05 240.042C5.58483e-05 236.714 0.874723 234.069 2.62406 232.106C4.37339 230.143 6.80539 229.162 9.92006 229.162C16.5761 229.162 19.9041 234.047 19.9041 243.818L19.9041 249.642L22.0801 249.642C24.1707 249.642 25.7494 249.13 26.8161 248.106C27.8827 247.082 28.4161 245.418 28.4161 243.114C28.4161 241.023 28.0107 239.338 27.2001 238.058C26.3894 236.778 25.3441 235.69 24.0641 234.794L28.0321 230.122C29.8667 231.146 31.4027 232.789 32.6401 235.05C33.9201 237.354 34.5601 240.319 34.5601 243.946C34.5601 248.298 33.5361 251.69 31.4881 254.122C29.4827 256.597 26.4747 257.834 22.4641 257.834L6.91205 257.834L6.91205 261.738L0.768055 261.738L0.768055 256.938ZM5.63206 242.794C5.63206 244.757 6.08006 246.378 6.97606 247.658C7.91472 248.981 9.17339 249.642 10.7521 249.642L15.1681 249.642L15.1681 244.01C15.1681 239.53 13.7601 237.29 10.9441 237.29L9.66406 237.29C8.34139 237.29 7.33872 237.781 6.65606 238.762C5.97339 239.743 5.63206 241.087 5.63206 242.794ZM7.23205 268.753L7.23205 276.945L27.3281 276.945L27.3281 268.753L33.7921 268.753L33.7921 285.137L24.7681 285.137L24.7681 285.649C25.9201 285.948 27.0294 286.353 28.0961 286.865C29.2054 287.42 30.1654 288.102 30.9761 288.913C31.8294 289.766 32.5121 290.79 33.0241 291.985C33.5361 293.18 33.7921 294.609 33.7921 296.273L33.7921 299.857L26.1121 299.857L26.1121 293.073C26.1121 290.598 25.3867 288.657 23.9361 287.249C22.4854 285.841 20.6294 285.137 18.3681 285.137L7.23205 285.137L7.23205 296.593L0.768053 296.593L0.768054 268.753L7.23205 268.753ZM0.768053 306.936L7.74405 306.936L27.3281 326.136L27.3281 307.576L33.7921 307.576L33.7921 335.48L26.8161 335.48L7.23205 316.28L7.23205 336.12L0.768052 336.12L0.768053 306.936Z" fill="#131313"/>
</svg>
