<svg width="49" height="187" viewBox="0 0 49 187" fill="none" xmlns="http://www.w3.org/2000/svg">
<path d="M21.4396 24.96L34.3676 25.344L34.3676 24.768L11.3916 16.128L34.3676 7.48798L34.3676 6.91198L21.4396 7.29598L0.767578 7.29598L0.767578 -2.34247e-05L45.4396 -2.1472e-05L45.4396 9.98398L28.9916 16.192L28.9916 16.64L45.4396 22.912L45.4396 32.256L0.767577 32.256L0.767577 24.96L21.4396 24.96ZM-0.000424432 55.271C-0.000424316 52.6256 0.404909 50.279 1.21558 48.231C2.02624 46.183 3.17824 44.455 4.67158 43.047C6.16491 41.6816 7.95691 40.6363 10.0476 39.911C12.1809 39.1856 14.5702 38.823 17.2156 38.823C19.9036 38.823 22.3142 39.1856 24.4476 39.911C26.5809 40.679 28.3942 41.7456 29.8876 43.111C31.3809 44.4763 32.5329 46.119 33.3436 48.039C34.1542 50.0016 34.5596 52.199 34.5596 54.631C34.5596 57.0203 34.1542 59.175 33.3436 61.095C32.5756 63.015 31.4662 64.6363 30.0156 65.959C28.5649 67.3243 26.8156 68.3696 24.7676 69.095C22.7196 69.8203 20.4582 70.183 17.9836 70.183L15.2956 70.183L15.2956 47.015L14.4636 47.015C12.0742 47.015 10.1329 47.7616 8.63958 49.255C7.18891 50.7483 6.46358 52.839 6.46358 55.527C6.46358 57.575 6.86891 59.3243 7.67958 60.775C8.53291 62.2683 9.64224 63.5056 11.0076 64.487L6.33558 69.159C4.58624 67.9643 3.09291 66.215 1.85558 63.911C0.618242 61.6496 -0.000424585 58.7696 -0.000424432 55.271ZM28.5436 54.695C28.5436 52.391 27.8182 50.535 26.3676 49.127C24.9169 47.719 22.9969 47.015 20.6076 47.015L20.1596 47.015L20.1596 61.991L20.7356 61.991C23.1249 61.991 25.0236 61.3296 26.4316 60.007C27.8396 58.727 28.5436 56.9563 28.5436 54.695ZM6.59157 99.47L6.59157 99.022C4.58624 98.126 2.98624 96.8886 1.79157 95.31C0.596907 93.774 -0.000426025 91.726 -0.000425914 89.166C-0.000425831 87.2886 0.340908 85.5606 1.02357 83.982C1.74891 82.446 2.81557 81.1233 4.22357 80.014C5.67424 78.9046 7.48758 78.0513 9.66358 77.454C11.8396 76.8566 14.3782 76.558 17.2796 76.558C23.0822 76.558 27.4129 77.71 30.2716 80.014C33.1302 82.318 34.5596 85.3686 34.5596 89.166C34.5596 91.726 33.9622 93.774 32.7676 95.31C31.5729 96.8886 29.9729 98.126 27.9676 99.022L27.9676 99.47L48.1276 99.47L48.1276 107.662L0.767573 107.662L0.767574 99.47L6.59157 99.47ZM6.52757 92.622C6.52757 93.5606 6.63424 94.4353 6.84757 95.246C7.10357 96.0993 7.44491 96.8246 7.87157 97.422C8.34091 98.062 8.91691 98.5526 9.59957 98.894C10.3249 99.278 11.1569 99.47 12.0956 99.47L22.4636 99.47C23.4022 99.47 24.2129 99.278 24.8956 98.894C25.6209 98.5526 26.1969 98.062 26.6236 97.422C27.0929 96.8246 27.4342 96.0993 27.6476 95.246C27.9036 94.4353 28.0316 93.5606 28.0316 92.622C28.0316 90.2326 27.3062 88.3766 25.8556 87.054C24.4049 85.774 22.4209 85.134 19.9036 85.134L14.6556 85.134C12.1382 85.134 10.1542 85.774 8.70357 87.054C7.25291 88.3766 6.52757 90.2326 6.52757 92.622ZM38.9116 133.301C38.9116 131.381 39.3169 130.016 40.1276 129.205C40.9382 128.437 41.9196 128.053 43.0716 128.053L44.6076 128.053C45.7596 128.053 46.7409 128.437 47.5516 129.205C48.3622 130.016 48.7676 131.381 48.7676 133.301C48.7676 135.221 48.3622 136.565 47.5516 137.333C46.7409 138.144 45.7596 138.549 44.6076 138.549L43.0716 138.549C41.9196 138.549 40.9382 138.144 40.1276 137.333C39.3169 136.565 38.9116 135.221 38.9116 133.301ZM7.23157 118.325L7.23157 129.205L27.3276 129.205L27.3276 118.325L33.7916 118.325L33.7916 137.397L7.23157 137.397L7.23157 147.509L0.767572 147.509L0.767573 118.325L7.23157 118.325ZM0.76757 181.788C0.76757 179.783 1.25824 178.225 2.23957 177.116C3.26357 176.049 4.67157 175.409 6.46357 175.196L6.46357 174.876C4.41557 174.279 2.81557 173.105 1.66357 171.356C0.554237 169.607 -0.000429336 167.452 -0.000429224 164.892C-0.000429078 161.564 0.874238 158.919 2.62357 156.956C4.3729 154.993 6.8049 154.012 9.91957 154.012C16.5756 154.012 19.9036 158.897 19.9036 168.668L19.9036 174.492L22.0796 174.492C24.1702 174.492 25.7489 173.98 26.8156 172.956C27.8822 171.932 28.4156 170.268 28.4156 167.964C28.4156 165.873 28.0102 164.188 27.1996 162.908C26.3889 161.628 25.3436 160.54 24.0636 159.644L28.0316 154.972C29.8662 155.996 31.4022 157.639 32.6396 159.9C33.9196 162.204 34.5596 165.169 34.5596 168.796C34.5596 173.148 33.5356 176.54 31.4876 178.972C29.4822 181.447 26.4742 182.684 22.4636 182.684L6.91157 182.684L6.91157 186.588L0.76757 186.588L0.76757 181.788ZM5.63157 167.644C5.63157 169.607 6.07957 171.228 6.97557 172.508C7.91424 173.831 9.1729 174.492 10.7516 174.492L15.1676 174.492L15.1676 168.86C15.1676 164.38 13.7596 162.14 10.9436 162.14L9.66357 162.14C8.3409 162.14 7.33824 162.631 6.65557 163.612C5.9729 164.593 5.63157 165.937 5.63157 167.644Z" fill="#131313"/>
</svg>
